HIERARCHY
ROOT Hips
{
	OFFSET 0.000000 0.000000 0.000000
	CHANNELS 6 Xposition Yposition Zposition Zrotation Yrotation Xrotation 
	JOINT LowerBack
	{
		OFFSET 0.000000 0.000000 0.000000
		CHANNELS 3 Zrotation Yrotation Xrotation
		JOINT Spine
		{
			OFFSET 0.028270 2.035590 -0.193380
			CHANNELS 3 Zrotation Yrotation Xrotation
			JOINT Spine1
			{
				OFFSET 0.056720 2.048850 -0.042750
				CHANNELS 3 Zrotation Yrotation Xrotation
				JOINT Neck
				{
					OFFSET 0.000000 0.000000 0.000000
					CHANNELS 3 Zrotation Yrotation Xrotation
					JOINT Neck1
					{
						OFFSET -0.054170 1.746240 0.172020
						CHANNELS 3 Zrotation Yrotation Xrotation
						JOINT Head
						{
							OFFSET 0.104070 1.761360 -0.123970
							CHANNELS 3 Zrotation Yrotation Xrotation
							End Site
							{
								OFFSET 0.000000 0.000000 0.000000
							}
						}
					}
				}
				JOINT LeftShoulder
				{
					OFFSET 0.000000 0.000000 0.000000
					CHANNELS 3 Zrotation Yrotation Xrotation
					JOINT LeftArm
					{
						OFFSET 3.362410 1.200890 -0.311210
						CHANNELS 3 Zrotation Yrotation Xrotation
						JOINT LeftForeArm
						{
							OFFSET 4.983000 -0.000000 -0.000000
							CHANNELS 3 Zrotation Yrotation Xrotation
							JOINT LeftHand
							{
								OFFSET 3.483560 -0.000000 -0.000000
								CHANNELS 3 Zrotation Yrotation Xrotation
								JOINT LeftFingerBase
								{
									OFFSET 0.000000 0.000000 0.000000
									CHANNELS 3 Zrotation Yrotation Xrotation
									JOINT LeftHandIndex1
									{
										OFFSET 0.715260 -0.000000 -0.000000
										CHANNELS 3 Zrotation Yrotation Xrotation
										End Site
										{
											OFFSET 0.000000 0.000000 0.000000
										}
									}
								}
								JOINT LThumb
								{
									OFFSET 0.000000 0.000000 0.000000
									CHANNELS 3 Zrotation Yrotation Xrotation
									End Site
									{
										OFFSET 0.000000 0.000000 0.000000
									}
								}
							}
						}
					}
				}
				JOINT RightShoulder
				{
					OFFSET 0.000000 0.000000 0.000000
					CHANNELS 3 Zrotation Yrotation Xrotation
					JOINT RightArm
					{
						OFFSET -3.136600 1.374050 -0.404650
						CHANNELS 3 Zrotation Yrotation Xrotation
						JOINT RightForeArm
						{
							OFFSET -5.241900 -0.000000 -0.000000
							CHANNELS 3 Zrotation Yrotation Xrotation
							JOINT RightHand
							{
								OFFSET -3.444170 -0.000000 -0.000000
								CHANNELS 3 Zrotation Yrotation Xrotation
								JOINT RightFingerBase
								{
									OFFSET 0.000000 0.000000 0.000000
									CHANNELS 3 Zrotation Yrotation Xrotation
									JOINT RightHandIndex1
									{
										OFFSET -0.622530 -0.000000 -0.000000
										CHANNELS 3 Zrotation Yrotation Xrotation
										End Site
										{
											OFFSET 0.000000 0.000000 0.000000
										}
									}
								}
								JOINT RThumb
								{
									OFFSET 0.000000 0.000000 0.000000
									CHANNELS 3 Zrotation Yrotation Xrotation
									End Site
									{
										OFFSET 0.000000 0.000000 0.000000
									}
								}
							}
						}
					}
				}
			}
		}
	}
}
}
MOTION
Frames: 15
Frame Time: 0.008333
2.709649 16.438709 1.109775 171.607648 -61.121636 -154.617473 -4.017570 -1.654798 -3.959221 -1.135701 -1.433581 -4.076722 -5.099453 -1.431370 -2.145979 10.557184 -5.909647 -3.316677 -2.494231 -0.240577 1.136186 0.000000 0.000000 0.000000 4.174818 5.680034 2.547209 -58.905417 18.971115 -10.338937 -179.566894 -73.544687 179.938940 10.476697 -11.056138 -1.083372 -0.170692 0.560204 0.000000 0.000000 0.000000 0.000000 0.000000 0.000000 0.000000 5.510988 0.474626 -3.909072 70.455574 55.130732 15.653281 -179.145369 61.535528 179.693172 -24.932078 17.898881 -4.352246 0.542581 -1.199455 -0.000000 0.000000 0.000000 0.000000 0.000000 0.000000 0.000000 
2.669347 16.469171 1.102830 173.470912 -58.308121 -155.520471 -3.298169 -1.532507 -4.381238 -1.001000 -1.390363 -4.075131 -5.060397 -1.386779 -1.691984 10.766567 -6.289556 -3.977606 -2.447118 -0.229492 0.958807 0.000000 0.000000 0.000000 4.724456 6.753261 2.693210 -57.919217 21.803705 -10.954409 -179.454972 -72.608098 179.950548 9.249164 -11.202374 -0.967477 -0.158874 0.547300 -0.000000 0.000000 0.000000 0.000000 0.000000 0.000000 0.000000 5.793451 0.480940 -3.665846 68.882533 55.696789 15.702652 -179.290151 61.494166 179.698343 -24.922882 17.544882 -4.269674 0.563108 -1.192353 -0.000000 0.000000 0.000000 0.000000 0.000000 0.000000 0.000000 
2.630084 16.503309 1.097489 175.181499 -55.537581 -156.239818 -2.524654 -1.383704 -4.749417 -0.856439 -1.323711 -4.063112 -5.018652 -1.317840 -1.249047 10.958247 -6.667650 -4.578990 -2.403258 -0.219169 0.796759 0.000000 0.000000 0.000000 5.466513 7.643942 2.827090 -56.868399 24.264687 -11.762849 -179.353523 -71.662134 179.959636 8.179648 -11.355407 -0.866597 -0.148789 0.540518 -0.000000 0.000000 0.000000 0.000000 0.000000 0.000000 0.000000 6.090072 0.437958 -3.414117 67.220084 56.309186 15.612925 -179.401433 61.506958 179.702534 -24.922774 17.213489 -4.193245 0.579788 -1.184378 -0.000000 0.000000 0.000000 0.000000 0.000000 0.000000 0.000000 
2.593106 16.540168 1.093084 176.738681 -52.858933 -156.791755 -1.721258 -1.217606 -5.052558 -0.707896 -1.240020 -4.038803 -4.982249 -1.230894 -0.821778 11.134762 -7.055790 -5.116023 -2.364425 -0.209818 0.651097 0.000000 0.000000 0.000000 6.392296 8.310432 2.961430 -55.667798 26.353869 -12.763903 -179.267944 -70.787765 179.966248 7.357123 -11.480761 -0.788118 -0.142472 0.538761 -0.000000 0.000000 0.000000 0.000000 0.000000 0.000000 0.000000 6.409185 0.327621 -3.161009 65.518157 56.949999 15.405816 -179.479275 61.580466 179.705716 -24.940723 16.902188 -4.123762 0.592664 -1.175375 -0.000000 0.000000 0.000000 0.000000 0.000000 0.000000 0.000000 
2.559470 16.578585 1.089263 178.151400 -50.319163 -157.201685 -0.911387 -1.045121 -5.284843 -0.560927 -1.147702 -4.001131 -4.959459 -1.134339 -0.413492 11.301769 -7.463840 -5.587707 -2.330991 -0.201495 0.521963 0.000000 0.000000 0.000000 7.481152 8.737345 3.105324 -54.224984 28.065446 -13.916405 -179.203045 -70.076172 179.970483 6.851061 -11.533170 -0.738029 -0.141962 0.540614 0.000000 0.000000 0.000000 0.000000 0.000000 0.000000 0.000000 6.757236 0.134572 -2.914909 63.829435 57.602088 15.108065 -179.525549 61.717025 179.707958 -24.978775 16.606819 -4.060420 0.601827 -1.165221 -0.000000 0.000000 0.000000 0.000000 0.000000 0.000000 0.000000 
2.530209 16.617374 1.085386 179.420446 -47.958570 -157.484086 -0.122448 -0.879074 -5.448566 -0.421566 -1.057208 -3.950005 -4.957506 -1.038635 -0.025125 11.469677 -7.897781 -5.996100 -2.302631 -0.194162 0.408734 0.000000 0.000000 0.000000 8.705267 8.935609 3.263977 -52.449921 29.383884 -15.141778 -179.161524 -69.621010 179.972486 6.694386 -11.481708 -0.719317 -0.148747 0.544812 0.000000 0.000000 0.000000 0.000000 0.000000 0.000000 0.000000 7.143689 -0.152945 -2.683634 62.202649 58.251788 14.748456 -179.544360 61.913618 179.709440 -25.031604 16.321362 -4.000815 0.607455 -1.153831 -0.000000 0.000000 0.000000 0.000000 0.000000 0.000000 0.000000 
2.506366 16.655396 1.080943 -179.456787 -45.812666 -157.651271 0.614496 -0.733197 -5.551745 -0.296413 -0.980014 -3.886197 -4.982371 -0.955234 0.343675 11.652172 -8.359160 -6.345845 -2.278980 -0.187740 0.310151 0.000000 0.000000 0.000000 10.033311 8.937132 3.438572 -50.265275 30.285884 -16.335882 -179.143254 -69.503833 179.972400 6.881516 -11.323772 -0.731184 -0.163425 0.550568 -0.000000 0.000000 0.000000 0.000000 0.000000 0.000000 0.000000 7.581910 -0.541779 -2.472908 60.676361 58.889279 14.353711 -179.541432 62.165848 179.710429 -25.087498 16.040815 -3.941841 0.609730 -1.141198 -0.000000 0.000000 0.000000 0.000000 0.000000 0.000000 0.000000 
2.488771 16.691509 1.075418 -178.483085 -43.906141 -157.712365 1.272685 -0.619942 -5.606304 -0.190917 -0.926998 -3.811390 -5.037895 -0.894983 0.693982 11.863475 -8.845743 -6.643153 -2.259358 -0.182112 0.224642 0.000000 0.000000 0.000000 11.430447 8.786223 3.627182 -47.613159 30.749655 -17.388132 -179.145609 -69.782953 179.970375 7.371306 -11.074664 -0.768532 -0.185559 0.557386 -0.000000 0.000000 0.000000 0.000000 0.000000 0.000000 0.000000 8.084055 -1.033792 -2.286381 59.275921 59.508954 13.944741 -179.523020 62.461412 179.711223 -25.130024 15.763276 -3.880491 0.608840 -1.127509 -0.000000 0.000000 0.000000 0.000000 0.000000 0.000000 0.000000 
2.477602 16.724593 1.068799 -177.641368 -42.253472 -157.689935 1.839597 -0.547744 -5.623373 -0.107459 -0.906250 -3.727739 -5.126433 -0.865876 1.026135 12.115040 -9.351154 -6.894747 -2.242636 -0.177126 0.150618 0.000000 0.000000 0.000000 12.860273 8.531634 3.826223 -44.465147 30.758320 -18.202010 -179.164855 -70.495543 179.966656 8.087448 -10.764266 -0.822472 -0.213593 0.564969 0.000000 0.000000 0.000000 0.000000 0.000000 0.000000 0.000000 8.655932 -1.624031 -2.126453 58.012241 60.103772 13.532299 -179.494271 62.786301 179.712096 -25.141648 15.491634 -3.815159 0.604852 -1.113074 -0.000000 0.000000 0.000000 0.000000 0.000000 0.000000 0.000000 
2.473522 16.754010 1.060765 -176.943430 -40.862481 -157.583558 2.290266 -0.525059 -5.617598 -0.051052 -0.925071 -3.638310 -5.248298 -0.875216 1.340189 12.421691 -9.866650 -7.106013 -2.228849 -0.172751 0.086878 0.000000 0.000000 0.000000 14.296266 8.209751 4.032016 -40.825501 30.302928 -18.717145 -179.198256 -71.666040 179.961707 8.932553 -10.490784 -0.888517 -0.244945 0.574195 -0.000000 0.000000 0.000000 0.000000 0.000000 0.000000 0.000000 9.312810 -2.304927 -1.990467 56.875183 60.668871 13.114983 -179.460284 63.123256 179.713267 -25.107956 15.230373 -3.744939 0.598006 -1.098326 -0.000000 0.000000 0.000000 0.000000 0.000000 0.000000 0.000000 
2.476283 16.779096 1.051502 -176.375377 -39.731706 -157.407949 2.618019 -0.554576 -5.598671 -0.022625 -0.986183 -3.546202 -5.401613 -0.925811 1.634303 12.793330 -10.381195 -7.280035 -2.217224 -0.168932 0.032954 0.000000 0.000000 0.000000 15.718331 7.842078 4.241167 -36.738851 29.392246 -18.918054 -179.245775 -73.314719 179.956259 9.799775 -10.357898 -0.965380 -0.276496 0.586055 0.000000 0.000000 0.000000 0.000000 0.000000 0.000000 0.000000 10.058835 -3.063863 -1.875849 55.841952 61.192658 12.678608 -179.423573 63.452722 179.714843 -25.019661 14.986560 -3.670725 0.588480 -1.083731 -0.000000 0.000000 0.000000 0.000000 0.000000 0.000000 0.000000 
2.485619 16.799547 1.041377 -175.926029 -38.854811 -157.176242 2.819263 -0.636213 -5.573184 -0.021997 -1.089488 -3.454668 -5.581393 -1.017886 1.904670 13.238018 -10.883165 -7.416995 -2.206737 -0.165643 -0.010778 0.000000 0.000000 0.000000 17.120242 7.426534 4.450935 -32.289513 28.057103 -18.833044 -179.310938 -75.477543 179.951278 10.590822 -10.488151 -1.058666 -0.305057 0.601900 0.000000 0.000000 0.000000 0.000000 0.000000 0.000000 0.000000 10.894060 -3.886158 -1.779307 54.879351 61.658393 12.197702 -179.384661 63.754660 179.716822 -24.875291 14.767503 -3.594314 0.576521 -1.069736 -0.000000 0.000000 0.000000 0.000000 0.000000 0.000000 0.000000 
2.500921 16.815317 1.030804 -175.581796 -38.220709 -156.900676 2.895533 -0.767391 -5.542373 -0.047118 -1.232356 -3.366658 -5.778910 -1.149443 2.145595 13.759699 -11.361164 -7.514368 -2.195894 -0.162856 -0.043193 0.000000 0.000000 0.000000 18.508907 6.936961 4.659053 -27.597250 26.359230 -18.521211 -179.400118 -78.209513 179.947764 11.231517 -10.984891 -1.176678 -0.328023 0.622788 -0.000000 0.000000 0.000000 0.000000 0.000000 0.000000 0.000000 11.810642 -4.755171 -1.698037 53.951148 62.044024 11.641685 -179.342614 64.011263 179.719080 -24.682339 14.578812 -3.518502 0.562500 -1.056692 -0.000000 0.000000 0.000000 0.000000 0.000000 0.000000 0.000000 
2.521428 16.826616 1.020353 -175.332127 -37.816534 -156.590221 2.850109 -0.944697 -5.503241 -0.094728 -1.411078 -3.284794 -5.981945 -1.317699 2.349891 14.357818 -11.805800 -7.568700 -2.183060 -0.160539 -0.062950 0.000000 0.000000 0.000000 19.901883 6.326434 4.862986 -22.806339 24.392478 -18.050604 -179.521052 -81.582748 179.946428 11.691096 -11.907474 -1.326709 -0.344092 0.649078 -0.000000 0.000000 0.000000 0.000000 0.000000 0.000000 0.000000 12.793905 -5.653284 -1.629786 53.025871 62.325182 10.982992 -179.296321 64.211374 179.721448 -24.455635 14.422965 -3.446288 0.546949 -1.044793 -0.000000 0.000000 0.000000 0.000000 0.000000 0.000000 0.000000 
2.546167 16.833934 1.010681 -175.159970 -37.624569 -156.255616 2.698341 -1.163307 -5.447749 -0.158110 -1.621099 -3.210943 -6.175620 -1.519115 2.509495 15.023760 -12.210172 -7.576994 -2.166479 -0.158634 -0.068910 0.000000 0.000000 0.000000 21.323278 5.535503 5.059066 -18.079269 22.279525 -17.479187 -179.680483 -85.669846 179.947525 11.985230 -13.269981 -1.513351 -0.353552 0.680503 -0.000000 0.000000 0.000000 0.000000 0.000000 0.000000 0.000000 13.817194 -6.561572 -1.574030 52.083140 62.480853 10.203611 -179.244873 64.344441 179.723703 -24.217141 14.297473 -3.380071 0.530682 -1.034103 -0.000000 0.000000 0.000000 0.000000 0.000000 0.000000 0.000000 
